<svg xmlns="http://www.w3.org/2000/svg" version="1.1" xmlns:xlink="http://www.w3.org/1999/xlink" width="2000" height="2000" viewBox="0 0 2000 2000"><rect width="2000" height="2000" x="0" y="0" id="background" stroke="transparent" fill="#ec82b0"></rect><svg xml:space="preserve" width="1500" height="1125" data-version="2" data-id="lg_H1VyzQZSgN3yk0aIRZ" viewBox="0 0 408 537" x="250" y="437.5"><rect width="100%" height="100%" fill="transparent"></rect><path fill="#fef8f1" d="M100.055 523.425q-11.59 1.99-20.77 4.59-9.19 2.6-22.77 2.6-14.78 0-22.77-8.39-7.98-8.39-7.98-18.77 0-8.39 2.79-21.77 2.8-13.38 2.8-26.96-2.8-51.53-7.39-102.05-4.59-50.53-8.99-92.47-4.39-41.94-7.59-71.69-3.19-29.76-3.19-40.54 0-7.19 3.59-13.38 3.6-6.19 9.99-10.99 6.39-4.79 14.98-7.39 8.58-2.59 18.17-2.59 18.77 0 27.56 5.79t10.78 18.57q11.19 85.88 16.18 157.57 4.99 71.7 6.99 134.4 0 9.19 4.99 13.98 4.99 4.8 12.98 4.8 15.98 0 32.36-1.8 16.37-1.8 32.75-3.8 16.37-1.99 32.55-3.79 16.18-1.8 31.35-1.8 9.99 0 16.18 2.4 6.19 2.4 9.59 6.39 3.39 3.99 4.39 8.99 1 4.99 1 9.78 0 7.59-1.6 15.18t-5.59 13.78q-4 6.19-10.79 10.38-6.79 4.2-17.17 5-49.13 4.79-89.67 7.19-40.54 2.39-65.7 6.79"></path><rect width="286.38" height="416.99" x="-143.19" y="-208.5" fill="none" rx="0" ry="0" transform="translate(147.88 322.62)"></rect><path fill="#fef8f1" d="M356.075 88.855q-11.58 0-21.77-3.39-10.18-3.4-17.57-9.59-7.39-6.19-11.78-14.58-4.4-8.38-4.4-18.37 0-16.77 13.38-27.16 13.38-10.38 35.75-10.38 10.39 0 19.97 3.79 9.59 3.8 16.98 10.19 7.39 6.39 11.78 14.97 4.39 8.59 4.39 17.78 0 17.17-12.58 26.96-12.58 9.78-34.15 9.78m-54.72 121.83q0-13.98 12.18-22.97 12.19-8.99 32.16-8.99 35.94 0 38.34 24.77 1.6 17.17 3.4 38.74 1.79 21.57 3.59 45.73 1.8 24.17 3.2 49.93 1.39 25.76 2.59 50.72 1.2 24.97 2 48.13.8 23.17.8 42.34 0 19.97-14.18 29.96-14.18 9.98-41.34 9.98-12.38 0-19.37-5.79t-6.99-16.97q0-55.12-2.6-103.25-2.59-48.13-5.59-85.68-3-37.54-5.59-62.5-2.6-24.97-2.6-34.15"></path><rect width="102.25" height="513.64" x="-51.13" y="-256.82" fill="none" rx="0" ry="0" transform="translate(352.18 262.7)"></rect></svg></svg>